<svg xmlns="http://www.w3.org/2000/svg" baseProfile="tiny-ps" version="1.2" viewBox="0 0 213.13 213.13" preserveAspectRatio="xMidYMid meet" xml:space="preserve"><title>Nordiska Kök</title>
  <circle cx="108.4" cy="105.97" r="84.16" fill="none" stroke="#000" stroke-miterlimit="10" stroke-width="2.83"/>
  <g>
    <path d="M108.75,152.56c-25.65,0-46.52-20.87-46.52-46.51s20.87-46.52,46.52-46.52,46.51,20.87,46.51,46.52-20.87,46.51-46.51,46.51ZM108.75,61.55c-24.54,0-44.5,19.96-44.5,44.5s19.96,44.49,44.5,44.49,44.5-19.96,44.5-44.49-19.96-44.5-44.5-44.5Z"/>
    <path d="M76.6,162.18c-20.06-11.52-32.53-33.03-32.53-56.13,0-11.48,3.05-22.75,8.81-32.6l1.74,1.02c-5.58,9.54-8.53,20.46-8.53,31.58,0,22.39,12.08,43.23,31.52,54.38l-1.01,1.75Z"/>
    <path d="M141.17,162.03l-1.01-1.74c19.28-11.19,31.26-31.97,31.26-54.24,0-8.71-1.75-17.14-5.2-25.05l1.85-.81c3.57,8.17,5.37,16.87,5.37,25.86,0,22.98-12.36,44.44-32.27,55.98Z"/>
    <g>
      <path d="M63.57,63.17c.84.12,1.43.24,2.23.43-.6-.46-1.18-.93-1.86-1.55l-2.77-2.49c-.8-.72-1.31-1.13-1.94-1.56l2.33-2.59c.48.57.97,1.05,1.76,1.76l6.46,5.81c.74.67,1.34,1.13,1.9,1.53l-2.39,2.66c-.66-.2-1.36-.32-2.37-.48l-5.42-.8c-.78-.11-1.33-.23-2.28-.47.6.43,1.29,1.01,1.89,1.54l2.73,2.45c.84.76,1.39,1.21,1.98,1.61l-2.33,2.59c-.41-.5-.92-1-1.82-1.81l-6.4-5.75c-.7-.63-1.27-1.1-1.9-1.53l2.37-2.64c.44.17,1.17.34,2.3.5l5.53.79Z"/>
      <path d="M81.9,49.53c2.25,3.68,1.51,7.49-1.88,9.57-3.41,2.09-7.08,1.06-9.34-2.63-2.25-3.68-1.5-7.38,1.93-9.49,3.43-2.1,7.05-1.1,9.29,2.55ZM79.02,51.33c-1.38-2.26-3.25-2.99-4.94-1.96-1.7,1.04-1.9,3.06-.52,5.31,1.39,2.27,3.3,3.04,5,2,1.69-1.03,1.86-3.06.46-5.34Z"/>
      <path d="M96.59,51.98c-.23-.48-.6-1.08-1.44-2.25-.88-1.23-1.17-1.54-1.66-1.78-.41-.21-.84-.23-1.35-.09l-1.61.44.71,2.59c.29,1.07.48,1.65.78,2.35l-3.39.93c-.11-.75-.2-1.23-.52-2.4l-2.32-8.48c-.27-.98-.46-1.55-.76-2.28.7-.16,1.29-.3,2.36-.6l4.1-1.12c2.55-.7,4.4.22,5.02,2.49.3,1.12.23,2.09-.23,2.84-.3.47-.58.74-1.28,1.2.87.03,1.33.3,2.15,1.28.37.44.74.92,1.92,2.42.29.39.59.73,1.21,1.46l-3.69,1.01ZM92.26,44.93c.93-.26,1.34-.98,1.1-1.88-.25-.88-.87-1.2-1.85-.93l-2.48.68.77,2.81,2.46-.67Z"/>
      <path d="M103.68,39.36c.02-1.11,0-1.65-.11-2.41.66.04,1.06.07,2.42.09l3.42.05c2.01.03,3.62.61,4.7,1.69,1.17,1.2,1.75,2.92,1.71,5.1-.04,2.24-.72,4.03-1.98,5.25-1.11,1.06-2.67,1.59-4.62,1.56l-3.45-.05c-1.26-.02-1.72-.01-2.41.01.11-.72.15-1.26.17-2.39l.15-8.91ZM108.97,47.84c1.06.02,1.82-.25,2.42-.83.68-.68,1.06-1.77,1.08-3.12.02-1.39-.27-2.41-.9-3.06-.56-.58-1.34-.86-2.52-.87l-2.14-.03-.13,7.88,2.19.03Z"/>
      <path d="M125.76,39.19c-.24.63-.4,1.17-.66,2.33l-1.93,8.55c-.25,1.1-.35,1.7-.41,2.39l-3.51-.79c.24-.6.42-1.26.66-2.33l1.93-8.55c.27-1.2.34-1.67.4-2.39l3.51.79Z"/>
      <path d="M131.19,50.58c-.18.56-.2.88-.1,1.28.15.61.67,1.14,1.43,1.48,1.15.52,2.06.32,2.43-.52.21-.46.15-.97-.16-1.33-.25-.29-.57-.56-1.96-1.62-1.24-.91-1.63-1.31-2.01-1.94-.64-1.08-.7-2.3-.16-3.51,1.03-2.3,3.53-2.92,6.47-1.6,1.9.85,3.08,2.08,3.39,3.56.15.66.13,1.19-.06,2.13l-3.32-1.08c.26-1.05-.1-1.69-1.23-2.2-.91-.41-1.8-.22-2.11.47-.19.42-.1.83.27,1.27q.24.27,1.84,1.42c1.03.75,1.63,1.32,2.04,1.94.77,1.15.86,2.39.24,3.77-.5,1.12-1.29,1.91-2.28,2.28-1.24.45-2.75.29-4.49-.49-1.27-.57-2.4-1.4-3-2.22-.56-.75-.82-1.64-.76-2.63.01-.43.09-.8.3-1.54l3.24,1.09Z"/>
      <path d="M149.59,64.87c-.18,1.72-.2,2.08-.21,2.97l-3.27-2.71c.16-.55.35-1.52.46-2.32l.64-4.74-2.32.22-1.31,1.59c-.65.78-.97,1.22-1.45,1.94l-2.67-2.21c.61-.58,1.02-1.02,1.65-1.78l5.59-6.74c.64-.77,1.02-1.28,1.45-1.95l2.66,2.21c-.62.59-.99.99-1.64,1.78l-1.85,2.23,4.73-.6c.92-.11,1.6-.27,2.26-.5l3.39,2.82c-.41.04-.58.07-.91.1q-1.2.11-1.61.15l-4.92.57-.68,6.98Z"/>
      <path d="M156.45,77.76c.58-.55.87-.87,1.24-1.31l.9-1.14-2.61-3.86-1.4.41c-.66.19-1.14.38-1.69.65l-2.14-3.17c.54-.07.95-.17,2.09-.47l10.13-2.58c.83-.2,1.32-.36,1.76-.55l2.39,3.54c-.33.36-.62.69-1.15,1.45l-6.17,8.45c-.54.74-.95,1.33-1.21,1.77l-2.14-3.17ZM163.62,69.08l-4.92,1.48,1.72,2.55,3.2-4.03Z"/>
    </g>
    <g>
      <path d="M96.32,171.29c.55,1.64.68,1.98,1.03,2.79l-4.1-1.11c-.08-.57-.31-1.53-.54-2.3l-1.38-4.58-2.03,1.16-.54,1.99c-.27.98-.38,1.51-.51,2.37l-3.35-.91c.32-.78.5-1.35.76-2.3l2.3-8.46c.26-.96.4-1.59.51-2.37l3.34.91c-.32.79-.49,1.31-.76,2.3l-.76,2.79,4.05-2.51c.79-.48,1.35-.91,1.85-1.39l4.26,1.16c-.36.21-.51.3-.79.46q-1.04.6-1.41.8l-4.24,2.56,2.28,6.64Z"/>
      <path d="M115,167.9c-.07,4.32-2.75,7.14-6.72,7.07-4.01-.06-6.55-2.9-6.48-7.23.07-4.32,2.7-7.04,6.72-6.98,4.02.07,6.55,2.85,6.47,7.14ZM107.6,157.17l-.05,2.71-2.7-.04.05-2.71,2.7.04ZM111.6,167.88c.04-2.65-1.14-4.27-3.12-4.3-2-.03-3.25,1.57-3.29,4.2-.04,2.66,1.16,4.34,3.15,4.37,1.98.03,3.21-1.59,3.25-4.27ZM112.26,157.25l-.04,2.71-2.7-.04.04-2.71,2.7.04Z"/>
      <path d="M131.44,168.47c1.31,1.13,1.6,1.36,2.31,1.87l-4.09,1.13c-.36-.44-1.05-1.15-1.64-1.7l-3.53-3.23-1.15,2.03.55,1.98c.27.98.45,1.49.77,2.3l-3.34.93c-.13-.83-.26-1.42-.52-2.37l-2.35-8.44c-.26-.96-.47-1.57-.77-2.3l3.34-.92c.13.84.25,1.37.52,2.37l.77,2.79,2.2-4.22c.44-.82.7-1.47.88-2.15l4.25-1.18c-.2.36-.28.52-.44.8q-.59,1.05-.8,1.41l-2.34,4.36,5.35,4.54Z"/>
    </g>
    <g>
      <path d="M137.54,75.8v60.65h-15.76l-23.63-34.64-3.68-5.4v40.04h-14.77v-60.65h15.58l23.76,34.91,3.69,5.42v-40.32h14.81M139.56,73.78h-18.84v35.79l-24.36-35.79h-18.67v64.69h18.8v-35.52l24.23,35.52h18.84v-64.69h0Z"/>
      <path d="M94.47,75.8v60.65h-14.77v-60.65h14.77M96.49,73.78h-18.8v64.69h18.8v-64.69h0Z"/>
      <path d="M137.54,98.74v14.76h-57.83s0-14.76,0-14.76h57.83M139.56,96.73h-61.87v18.8h61.87v-18.8h0Z"/>
      <path d="M137.54,75.8v60.65h-14.76v-60.65h14.76M139.56,73.78h-18.8v64.69h18.8v-64.69h0Z"/>
    </g>
  </g>
</svg>