<?xml version="1.0" encoding="UTF-8"?><svg xmlns="http://www.w3.org/2000/svg" xmlns:svg="http://www.w3.org/2000/svg" xmlns:rdf="http://www.w3.org/1999/02/22-rdf-syntax-ns#" xmlns:cc="http://creativecommons.org/ns#" xmlns:dc="http://purl.org/dc/elements/1.1/" version="1.2" viewBox="0 0 213.13 213.13" preserveAspectRatio="xMidYMid meet" xml:space="preserve" baseProfile="tiny-ps"><title>Nordiska Kok</title><defs id="defs19"></defs><circle cx="108.4" cy="105.97" r="84.16" fill="none" stroke="#000" stroke-miterlimit="10" stroke-width="2.83" id="circle1"></circle><path d="m 108.75,152.56 c -25.65,0 -46.52,-20.87 -46.52,-46.51 0,-25.64 20.87,-46.52 46.52,-46.52 25.65,0 46.51,20.87 46.51,46.52 0,25.65 -20.87,46.51 -46.51,46.51 z m 0,-91.01 c -24.54,0 -44.5,19.96 -44.5,44.5 0,24.54 19.96,44.49 44.5,44.49 24.54,0 44.5,-19.96 44.5,-44.49 0,-24.53 -19.96,-44.5 -44.5,-44.5 z" id="path1"></path><path d="M 76.6,162.18 C 56.54,150.66 44.07,129.15 44.07,106.05 c 0,-11.48 3.05,-22.75 8.81,-32.6 l 1.74,1.02 c -5.58,9.54 -8.53,20.46 -8.53,31.58 0,22.39 12.08,43.23 31.52,54.38 z" id="path2"></path><path d="m 141.17,162.03 -1.01,-1.74 c 19.28,-11.19 31.26,-31.97 31.26,-54.24 0,-8.71 -1.75,-17.14 -5.2,-25.05 l 1.85,-0.81 c 3.57,8.17 5.37,16.87 5.37,25.86 0,22.98 -12.36,44.44 -32.27,55.98 z" id="path3"></path><g id="g11"><path d="m 63.57,63.17 c 0.84,0.12 1.43,0.24 2.23,0.43 -0.6,-0.46 -1.18,-0.93 -1.86,-1.55 L 61.17,59.56 C 60.37,58.84 59.86,58.43 59.23,58 l 2.33,-2.59 c 0.48,0.57 0.97,1.05 1.76,1.76 l 6.46,5.81 c 0.74,0.67 1.34,1.13 1.9,1.53 l -2.39,2.66 c -0.66,-0.2 -1.36,-0.32 -2.37,-0.48 l -5.42,-0.8 c -0.78,-0.11 -1.33,-0.23 -2.28,-0.47 0.6,0.43 1.29,1.01 1.89,1.54 l 2.73,2.45 c 0.84,0.76 1.39,1.21 1.98,1.61 l -2.33,2.59 c -0.41,-0.5 -0.92,-1 -1.82,-1.81 l -6.4,-5.75 c -0.7,-0.63 -1.27,-1.1 -1.9,-1.53 l 2.37,-2.64 c 0.44,0.17 1.17,0.34 2.3,0.5 z" id="path4"></path><path d="m 81.9,49.53 c 2.25,3.68 1.51,7.49 -1.88,9.57 -3.41,2.09 -7.08,1.06 -9.34,-2.63 -2.25,-3.68 -1.5,-7.38 1.93,-9.49 3.43,-2.1 7.05,-1.1 9.29,2.55 z m -2.88,1.8 c -1.38,-2.26 -3.25,-2.99 -4.94,-1.96 -1.7,1.04 -1.9,3.06 -0.52,5.31 1.39,2.27 3.3,3.04 5,2 1.69,-1.03 1.86,-3.06 0.46,-5.34 z" id="path5"></path><path d="M 96.59,51.98 C 96.36,51.5 95.99,50.9 95.15,49.73 94.27,48.5 93.98,48.19 93.49,47.95 93.08,47.74 92.65,47.72 92.14,47.86 l -1.61,0.44 0.71,2.59 c 0.29,1.07 0.48,1.65 0.78,2.35 l -3.39,0.93 c -0.11,-0.75 -0.2,-1.23 -0.52,-2.4 l -2.32,-8.48 c -0.27,-0.98 -0.46,-1.55 -0.76,-2.28 0.7,-0.16 1.29,-0.3 2.36,-0.6 l 4.1,-1.12 c 2.55,-0.7 4.4,0.22 5.02,2.49 0.3,1.12 0.23,2.09 -0.23,2.84 -0.3,0.47 -0.58,0.74 -1.28,1.2 0.87,0.03 1.33,0.3 2.15,1.28 0.37,0.44 0.74,0.92 1.92,2.42 0.29,0.39 0.59,0.73 1.21,1.46 l -3.69,1.01 z m -4.33,-7.05 c 0.93,-0.26 1.34,-0.98 1.1,-1.88 -0.25,-0.88 -0.87,-1.2 -1.85,-0.93 l -2.48,0.68 0.77,2.81 2.46,-0.67 z" id="path6"></path><path d="m 103.68,39.36 c 0.02,-1.11 0,-1.65 -0.11,-2.41 0.66,0.04 1.06,0.07 2.42,0.09 l 3.42,0.05 c 2.01,0.03 3.62,0.61 4.7,1.69 1.17,1.2 1.75,2.92 1.71,5.1 -0.04,2.24 -0.72,4.03 -1.98,5.25 -1.11,1.06 -2.67,1.59 -4.62,1.56 l -3.45,-0.05 c -1.26,-0.02 -1.72,-0.01 -2.41,0.01 0.11,-0.72 0.15,-1.26 0.17,-2.39 l 0.15,-8.91 z m 5.29,8.48 c 1.06,0.02 1.82,-0.25 2.42,-0.83 0.68,-0.68 1.06,-1.77 1.08,-3.12 0.02,-1.39 -0.27,-2.41 -0.9,-3.06 -0.56,-0.58 -1.34,-0.86 -2.52,-0.87 l -2.14,-0.03 -0.13,7.88 z" id="path7"></path><path d="m 125.76,39.19 c -0.24,0.63 -0.4,1.17 -0.66,2.33 l -1.93,8.55 c -0.25,1.1 -0.35,1.7 -0.41,2.39 l -3.51,-0.79 c 0.24,-0.6 0.42,-1.26 0.66,-2.33 l 1.93,-8.55 c 0.27,-1.2 0.34,-1.67 0.4,-2.39 l 3.51,0.79 z" id="path8"></path><path d="m 131.19,50.58 c -0.18,0.56 -0.2,0.88 -0.1,1.28 0.15,0.61 0.67,1.14 1.43,1.48 1.15,0.52 2.06,0.32 2.43,-0.52 0.21,-0.46 0.15,-0.97 -0.16,-1.33 -0.25,-0.29 -0.57,-0.56 -1.96,-1.62 -1.24,-0.91 -1.63,-1.31 -2.01,-1.94 -0.64,-1.08 -0.7,-2.3 -0.16,-3.51 1.03,-2.3 3.53,-2.92 6.47,-1.6 1.9,0.85 3.08,2.08 3.39,3.56 0.15,0.66 0.13,1.19 -0.06,2.13 l -3.32,-1.08 c 0.26,-1.05 -0.1,-1.69 -1.23,-2.2 -0.91,-0.41 -1.8,-0.22 -2.11,0.47 -0.19,0.42 -0.1,0.83 0.27,1.27 q 0.24,0.27 1.84,1.42 c 1.03,0.75 1.63,1.32 2.04,1.94 0.77,1.15 0.86,2.39 0.24,3.77 -0.5,1.12 -1.29,1.91 -2.28,2.28 -1.24,0.45 -2.75,0.29 -4.49,-0.49 -1.27,-0.57 -2.4,-1.4 -3,-2.22 -0.56,-0.75 -0.82,-1.64 -0.76,-2.63 0.01,-0.43 0.09,-0.8 0.3,-1.54 l 3.24,1.09 z" id="path9"></path><path d="m 149.59,64.87 c -0.18,1.72 -0.2,2.08 -0.21,2.97 l -3.27,-2.71 c 0.16,-0.55 0.35,-1.52 0.46,-2.32 l 0.64,-4.74 -2.32,0.22 -1.31,1.59 c -0.65,0.78 -0.97,1.22 -1.45,1.94 l -2.67,-2.21 c 0.61,-0.58 1.02,-1.02 1.65,-1.78 l 5.59,-6.74 c 0.64,-0.77 1.02,-1.28 1.45,-1.95 l 2.66,2.21 c -0.62,0.59 -0.99,0.99 -1.64,1.78 l -1.85,2.23 4.73,-0.6 c 0.92,-0.11 1.6,-0.27 2.26,-0.5 l 3.39,2.82 c -0.41,0.04 -0.58,0.07 -0.91,0.1 q -1.2,0.11 -1.61,0.15 l -4.92,0.57 -0.68,6.98 z" id="path10"></path><path d="m 156.45,77.76 c 0.58,-0.55 0.87,-0.87 1.24,-1.31 l 0.9,-1.14 -2.61,-3.86 -1.4,0.41 c -0.66,0.19 -1.14,0.38 -1.69,0.65 l -2.14,-3.17 c 0.54,-0.07 0.95,-0.17 2.09,-0.47 l 10.13,-2.58 c 0.83,-0.2 1.32,-0.36 1.76,-0.55 l 2.39,3.54 c -0.33,0.36 -0.62,0.69 -1.15,1.45 l -6.17,8.45 c -0.54,0.74 -0.95,1.33 -1.21,1.77 l -2.14,-3.17 z m 7.17,-8.68 -4.92,1.48 1.72,2.55 z" id="path11"></path></g><g id="g14"><path d="m 96.32,171.29 c 0.55,1.64 0.68,1.98 1.03,2.79 l -4.1,-1.11 c -0.08,-0.57 -0.31,-1.53 -0.54,-2.3 l -1.38,-4.58 -2.03,1.16 -0.54,1.99 c -0.27,0.98 -0.38,1.51 -0.51,2.37 L 84.9,170.7 c 0.32,-0.78 0.5,-1.35 0.76,-2.3 l 2.3,-8.46 c 0.26,-0.96 0.4,-1.59 0.51,-2.37 l 3.34,0.91 c -0.32,0.79 -0.49,1.31 -0.76,2.3 l -0.76,2.79 4.05,-2.51 c 0.79,-0.48 1.35,-0.91 1.85,-1.39 l 4.26,1.16 c -0.36,0.21 -0.51,0.3 -0.79,0.46 q -1.04,0.6 -1.41,0.8 l -4.24,2.56 2.28,6.64 z" id="path12"></path><path d="m 115,167.9 c -0.07,4.32 -2.75,7.14 -6.72,7.07 -4.01,-0.06 -6.55,-2.9 -6.48,-7.23 0.07,-4.32 2.7,-7.04 6.72,-6.98 4.02,0.07 6.55,2.85 6.47,7.14 z m -7.4,-10.73 -0.05,2.71 -2.7,-0.04 0.05,-2.71 z m 4,10.71 c 0.04,-2.65 -1.14,-4.27 -3.12,-4.3 -2,-0.03 -3.25,1.57 -3.29,4.2 -0.04,2.66 1.16,4.34 3.15,4.37 1.98,0.03 3.21,-1.59 3.25,-4.27 z m 0.66,-10.63 -0.04,2.71 -2.7,-0.04 0.04,-2.71 z" id="path13"></path><path d="m 131.44,168.47 c 1.31,1.13 1.6,1.36 2.31,1.87 l -4.09,1.13 c -0.36,-0.44 -1.05,-1.15 -1.64,-1.7 l -3.53,-3.23 -1.15,2.03 0.55,1.98 c 0.27,0.98 0.45,1.49 0.77,2.3 l -3.34,0.93 c -0.13,-0.83 -0.26,-1.42 -0.52,-2.37 l -2.35,-8.44 c -0.26,-0.96 -0.47,-1.57 -0.77,-2.3 l 3.34,-0.92 c 0.13,0.84 0.25,1.37 0.52,2.37 l 0.77,2.79 2.2,-4.22 c 0.44,-0.82 0.7,-1.47 0.88,-2.15 l 4.25,-1.18 c -0.2,0.36 -0.28,0.52 -0.44,0.8 q -0.59,1.05 -0.8,1.41 l -2.34,4.36 5.35,4.54 z" id="path14"></path></g><path d="m 137.54,75.8 v 60.65 h -15.76 l -23.63,-34.64 -3.68,-5.4 v 40.04 H 79.7 V 75.8 h 15.58 l 23.76,34.91 3.69,5.42 V 75.81 h 14.81 m 2.02,-2.03 h -18.84 v 35.79 L 96.36,73.78 H 77.69 v 64.69 h 18.8 v -35.52 l 24.23,35.52 h 18.84 z" id="path15"></path><path d="m 94.47,75.8 v 60.65 H 79.7 V 75.8 h 14.77 m 2.02,-2.02 h -18.8 v 64.69 h 18.8 z" id="path16"></path><path d="M 137.54,98.74 V 113.5 H 79.71 c 0,0 0,-14.76 0,-14.76 h 57.83 m 2.02,-2.01 H 77.69 v 18.8 h 61.87 z" id="path17"></path><path d="m 137.54,75.8 v 60.65 H 122.78 V 75.8 h 14.76 m 2.02,-2.02 h -18.8 v 64.69 h 18.8 z" id="path18"></path><metadata></metadata></svg>